<?xml version="1.0" encoding="UTF-8" standalone="no"?>
<svg
   xmlns:dc="http://purl.org/dc/elements/1.1/"
   xmlns:cc="http://creativecommons.org/ns#"
   xmlns:rdf="http://www.w3.org/1999/02/22-rdf-syntax-ns#"
   xmlns:svg="http://www.w3.org/2000/svg"
   xmlns="http://www.w3.org/2000/svg"
   viewBox="0 0 1133.8586 793.70667"
   height="793.70667"
   width="1133.8586"
   xml:space="preserve"
   id="svg2"
   version="1.1"><metadata
     id="metadata8"><rdf:RDF><cc:Work
         rdf:about=""><dc:format>image/svg+xml</dc:format><dc:type
           rdf:resource="http://purl.org/dc/dcmitype/StillImage" /></cc:Work></rdf:RDF></metadata><defs
     id="defs6"><clipPath
       id="clipPath18"
       clipPathUnits="userSpaceOnUse"><path
         id="path16"
         d="M 0,595.28 H 850.394 V 0 H 0 Z" /></clipPath></defs><g
     transform="matrix(1.3333333,0,0,-1.3333333,0,793.70667)"
     id="g10"><g
       id="g12"><g
         clip-path="url(#clipPath18)"
         id="g14"><g
           transform="translate(566.4492,355.543)"
           id="g20"><path
             id="path22"
             style="fill:#2b2b2a;fill-opacity:1;fill-rule:nonzero;stroke:none"
             d="m 0,0 c -2.063,-1.063 -6.385,-2.128 -11.839,-2.128 -12.637,0 -22.079,7.981 -22.079,22.746 0,14.099 9.51,23.542 23.41,23.542 5.521,0 9.111,-1.196 10.641,-1.995 l -1.465,-4.721 c -2.127,1.064 -5.253,1.863 -8.976,1.863 -10.51,0 -17.492,-6.718 -17.492,-18.49 0,-11.04 6.318,-18.023 17.158,-18.023 3.59,0 7.183,0.731 9.51,1.863 z" /></g><g
           transform="translate(575.834,376.3604)"
           id="g24"><path
             id="path26"
             style="fill:#2b2b2a;fill-opacity:1;fill-rule:nonzero;stroke:none"
             d="m 0,0 c 0,-9.645 5.187,-18.224 14.367,-18.224 9.176,0 14.363,8.448 14.363,18.623 0,8.979 -4.656,18.288 -14.299,18.288 C 4.786,18.687 0,9.776 0,0 m 34.848,0.665 c 0,-15.363 -9.377,-23.61 -20.815,-23.61 -11.905,0 -20.151,9.245 -20.151,22.811 0,14.234 8.776,23.544 20.749,23.544 12.305,0 20.217,-9.377 20.217,-22.745" /></g><g
           transform="translate(618.208,354.1475)"
           id="g28"><path
             id="path30"
             style="fill:#2b2b2a;fill-opacity:1;fill-rule:nonzero;stroke:none"
             d="m 0,0 v 44.825 h 6.385 l 14.3,-22.679 c 3.258,-5.254 5.918,-9.975 7.98,-14.564 l 0.198,0.066 C 28.333,13.633 28.2,19.087 28.2,26.07 v 18.755 h 5.454 L 33.654,0 H 27.8 L 13.569,22.744 C 10.441,27.733 7.448,32.854 5.254,37.709 L 5.057,37.642 C 5.387,31.989 5.454,26.603 5.454,19.153 V 0 Z" /></g><g
           transform="translate(661.25,361.1973)"
           id="g32"><path
             id="path34"
             style="fill:#2b2b2a;fill-opacity:1;fill-rule:nonzero;stroke:none"
             d="m 0,0 c 2.594,-1.663 6.317,-2.927 10.308,-2.927 5.92,0 9.377,3.125 9.377,7.649 0,4.123 -2.393,6.585 -8.447,8.844 -7.316,2.661 -11.839,6.518 -11.839,12.77 0,6.983 5.788,12.17 14.5,12.17 4.524,0 7.913,-1.065 9.844,-2.194 L 22.146,31.59 c -1.398,0.865 -4.39,2.128 -8.447,2.128 -6.118,0 -8.446,-3.657 -8.446,-6.717 0,-4.189 2.726,-6.251 8.913,-8.647 7.582,-2.924 11.371,-6.583 11.371,-13.167 0,-6.916 -5.053,-12.969 -15.628,-12.969 -4.322,0 -9.046,1.331 -11.44,2.927 z" /></g><g
           transform="translate(717.918,375.1621)"
           id="g36"><path
             id="path38"
             style="fill:#2b2b2a;fill-opacity:1;fill-rule:nonzero;stroke:none"
             d="m 0,0 h -17.355 v -16.16 h 19.42 v -4.855 H -23.209 V 23.811 H 1.067 V 18.955 H -17.355 V 4.79 L 0,4.79 Z" /></g><g
           transform="translate(727.4375,398.9727)"
           id="g40"><path
             id="path42"
             style="fill:#2b2b2a;fill-opacity:1;fill-rule:nonzero;stroke:none"
             d="m 0,0 h 5.854 v -39.971 h 19.153 v -4.854 l -25.007,0 z" /></g><g
           transform="translate(764.6885,398.9727)"
           id="g44"><path
             id="path46"
             style="fill:#2b2b2a;fill-opacity:1;fill-rule:nonzero;stroke:none"
             d="M 0,0 V -18.755 H 21.679 V 0 h 5.854 v -44.825 h -5.854 v 21.014 H 0 V -44.825 H -5.854 V 0 Z" /></g><g
           transform="translate(805.7324,376.3604)"
           id="g48"><path
             id="path50"
             style="fill:#2b2b2a;fill-opacity:1;fill-rule:nonzero;stroke:none"
             d="m 0,0 c 0,-9.645 5.187,-18.224 14.367,-18.224 9.177,0 14.364,8.448 14.364,18.623 0,8.979 -4.657,18.288 -14.3,18.288 C 4.787,18.687 0,9.776 0,0 m 34.848,0.665 c 0,-15.363 -9.377,-23.61 -20.814,-23.61 -11.905,0 -20.152,9.245 -20.152,22.811 0,14.234 8.777,23.544 20.749,23.544 12.305,0 20.217,-9.377 20.217,-22.745" /></g><g
           transform="translate(535.1904,274.3193)"
           id="g52"><path
             id="path54"
             style="fill:#2b2b2a;fill-opacity:1;fill-rule:nonzero;stroke:none"
             d="M 0,0 V 44.824 H 6.384 L 20.685,22.146 c 3.258,-5.253 5.918,-9.975 7.978,-14.565 l 0.2,0.067 C 28.333,13.633 28.2,19.087 28.2,26.069 v 18.755 h 5.453 V 0 H 27.8 L 13.566,22.744 C 10.44,27.732 7.448,32.853 5.253,37.708 l -0.2,-0.066 c 0.334,-5.654 0.4,-11.04 0.4,-18.489 V 0 Z" /></g><g
           transform="translate(600.9775,292.9424)"
           id="g56"><path
             id="path58"
             style="fill:#2b2b2a;fill-opacity:1;fill-rule:nonzero;stroke:none"
             d="m 0,0 -4.457,12.9 c -0.997,2.926 -1.664,5.586 -2.328,8.18 h -0.133 c -0.665,-2.594 -1.33,-5.386 -2.261,-8.112 L -13.569,0 Z m -14.767,-4.523 -4.654,-14.1 h -5.987 l 15.298,44.824 h 6.917 L 12.103,-18.623 H 5.917 l -4.789,14.1 z" /></g><g
           transform="translate(649.9365,275.7168)"
           id="g60"><path
             id="path62"
             style="fill:#2b2b2a;fill-opacity:1;fill-rule:nonzero;stroke:none"
             d="m 0,0 c -2.062,-1.064 -6.384,-2.129 -11.839,-2.129 -12.636,0 -22.078,7.98 -22.078,22.745 0,14.099 9.51,23.542 23.409,23.542 5.521,0 9.111,-1.196 10.641,-1.995 l -1.464,-4.722 c -2.128,1.065 -5.254,1.863 -8.977,1.863 -10.509,0 -17.493,-6.717 -17.493,-18.49 0,-11.041 6.319,-18.022 17.16,-18.022 3.592,0 7.182,0.73 9.51,1.861 z" /></g><path
           id="path64"
           style="fill:#2b2b2a;fill-opacity:1;fill-rule:nonzero;stroke:none"
           d="m 663.047,274.319 h -5.854 v 44.824 h 5.854 z" /><g
           transform="translate(676.6182,296.5312)"
           id="g66"><path
             id="path68"
             style="fill:#2b2b2a;fill-opacity:1;fill-rule:nonzero;stroke:none"
             d="m 0,0 c 0,-9.644 5.187,-18.223 14.364,-18.223 9.18,0 14.367,8.447 14.367,18.623 0,8.979 -4.657,18.288 -14.299,18.288 C 4.791,18.688 0,9.776 0,0 m 34.85,0.666 c 0,-15.362 -9.377,-23.609 -20.816,-23.609 -11.905,0 -20.15,9.243 -20.15,22.81 0,14.233 8.779,23.543 20.748,23.543 12.305,0 20.218,-9.377 20.218,-22.744" /></g><g
           transform="translate(718.9932,274.3193)"
           id="g70"><path
             id="path72"
             style="fill:#2b2b2a;fill-opacity:1;fill-rule:nonzero;stroke:none"
             d="m 0,0 v 44.824 h 6.385 l 14.3,-22.678 c 3.258,-5.253 5.918,-9.975 7.979,-14.565 l 0.2,0.067 C 28.333,13.633 28.2,19.087 28.2,26.069 v 18.755 h 5.453 V 0 H 27.801 L 13.566,22.744 C 10.441,27.732 7.449,32.853 5.255,37.708 l -0.2,-0.066 C 5.388,31.988 5.454,26.602 5.454,19.153 V 0 Z" /></g><g
           transform="translate(784.7812,292.9424)"
           id="g74"><path
             id="path76"
             style="fill:#2b2b2a;fill-opacity:1;fill-rule:nonzero;stroke:none"
             d="m 0,0 -4.457,12.9 c -0.996,2.926 -1.663,5.586 -2.328,8.18 H -6.918 C -7.582,18.486 -8.249,15.694 -9.18,12.968 L -13.569,0 Z m -14.767,-4.523 -4.653,-14.1 h -5.987 l 15.297,44.824 h 6.918 L 12.103,-18.623 H 5.918 l -4.79,14.1 z" /></g><g
           transform="translate(803.4121,319.1436)"
           id="g78"><path
             id="path80"
             style="fill:#2b2b2a;fill-opacity:1;fill-rule:nonzero;stroke:none"
             d="m 0,0 h 5.854 v -39.972 h 19.153 v -4.852 H 0 Z" /></g><g
           transform="translate(540.9775,199.0156)"
           id="g82"><path
             id="path84"
             style="fill:#2b2b2a;fill-opacity:1;fill-rule:nonzero;stroke:none"
             d="m 0,0 c 1.461,-0.2 3.59,-0.266 5.851,-0.266 12.438,0 19.086,6.914 19.086,19.02 C 25.005,29.328 19.02,36.047 6.781,36.047 3.789,36.047 1.528,35.779 0,35.446 Z m -5.787,39.639 c 3.524,0.597 7.715,0.997 12.305,0.997 8.312,0 14.23,-1.997 18.156,-5.587 4.055,-3.659 6.384,-8.847 6.384,-16.095 0,-7.315 -2.329,-13.303 -6.451,-17.426 -4.256,-4.189 -11.174,-6.451 -19.887,-6.451 -4.19,0 -7.582,0.2 -10.507,0.533 z" /></g><g
           transform="translate(602.6387,215.5078)"
           id="g86"><path
             id="path88"
             style="fill:#2b2b2a;fill-opacity:1;fill-rule:nonzero;stroke:none"
             d="M 0,0 H -17.359 V -16.161 H 2.062 v -4.854 H -23.213 V 23.81 H 1.062 V 18.954 H -17.359 V 4.79 L 0,4.79 Z" /></g><g
           transform="translate(635.4365,239.3174)"
           id="g90"><path
             id="path92"
             style="fill:#2b2b2a;fill-opacity:1;fill-rule:nonzero;stroke:none"
             d="m 0,0 h 5.852 v -29.994 c 0,-11.905 -5.852,-15.561 -13.568,-15.561 -2.195,0 -4.789,0.463 -6.184,1.064 l 0.797,4.72 c 1.198,-0.463 2.926,-0.864 4.92,-0.864 5.19,0 8.183,2.328 8.183,11.108 z" /></g><g
           transform="translate(656.7236,239.3174)"
           id="g94"><path
             id="path96"
             style="fill:#2b2b2a;fill-opacity:1;fill-rule:nonzero;stroke:none"
             d="m 0,0 v -26.603 c 0,-9.975 4.457,-14.232 10.44,-14.232 6.585,0 10.91,4.39 10.91,14.232 V 0 h 5.85 v -26.201 c 0,-13.77 -7.249,-19.354 -16.96,-19.354 -9.177,0 -16.094,5.186 -16.094,19.153 l 0,26.402 z" /></g><g
           transform="translate(693.2441,201.542)"
           id="g98"><path
             id="path100"
             style="fill:#2b2b2a;fill-opacity:1;fill-rule:nonzero;stroke:none"
             d="m 0,0 c 2.593,-1.662 6.318,-2.927 10.308,-2.927 5.921,0 9.377,3.126 9.377,7.65 0,4.123 -2.392,6.585 -8.447,8.845 -7.314,2.66 -11.835,6.519 -11.835,12.77 0,6.982 5.784,12.17 14.497,12.17 4.523,0 7.912,-1.066 9.843,-2.195 l -1.597,-4.721 c -1.397,0.863 -4.39,2.128 -8.446,2.128 -6.117,0 -8.446,-3.658 -8.446,-6.718 0,-4.19 2.726,-6.252 8.914,-8.647 7.578,-2.925 11.371,-6.584 11.371,-13.166 0,-6.918 -5.055,-12.968 -15.628,-12.968 -4.324,0 -9.047,1.327 -11.441,2.925 z" /></g><g
           transform="translate(735.2822,234.3975)"
           id="g102"><path
             id="path104"
             style="fill:#2b2b2a;fill-opacity:1;fill-rule:nonzero;stroke:none"
             d="M 0,0 H -13.632 V 4.92 H 19.555 V 0 H 5.854 V -39.904 H 0 Z" /></g><path
           id="path106"
           style="fill:#2b2b2a;fill-opacity:1;fill-rule:nonzero;stroke:none"
           d="m 765.619,194.493 h -5.854 v 44.824 h 5.854 z" /><g
           transform="translate(807.0576,195.957)"
           id="g108"><path
             id="path110"
             style="fill:#2b2b2a;fill-opacity:1;fill-rule:nonzero;stroke:none"
             d="m 0,0 c -1.994,-1.064 -6.118,-2.062 -11.639,-2.129 l -1.663,-2.661 c 2.529,-0.464 4.656,-2.262 4.656,-4.92 0,-3.927 -3.392,-5.388 -6.851,-5.388 -1.729,0 -3.523,0.464 -4.721,1.131 l 0.931,2.993 c 0.998,-0.601 2.328,-0.931 3.659,-0.931 1.528,0 2.859,0.597 2.859,2.061 0,1.728 -2.061,2.462 -5.187,2.86 l 2.792,5.053 c -10.974,1.265 -18.82,8.979 -18.82,22.48 0,14.099 9.509,23.544 23.476,23.544 5.521,0 9.111,-1.198 10.575,-1.996 l -1.398,-4.724 c -2.195,1.067 -5.32,1.865 -9.043,1.865 -10.511,0 -17.492,-6.717 -17.492,-18.489 0,-11.042 6.318,-18.023 17.225,-18.023 3.527,0 7.115,0.73 9.51,1.861 z" /></g><g
           transform="translate(836.9307,213.1162)"
           id="g112"><path
             id="path114"
             style="fill:#2b2b2a;fill-opacity:1;fill-rule:nonzero;stroke:none"
             d="m 0,0 -4.457,12.899 c -0.998,2.929 -1.664,5.588 -2.328,8.182 H -6.919 C -7.583,18.487 -8.25,15.694 -9.181,12.967 L -13.57,0 Z m -14.768,-4.523 -4.653,-14.1 h -5.987 l 15.297,44.824 h 6.918 L 12.102,-18.623 H 5.917 l -4.79,14.1 z" /></g><g
           transform="translate(118.6074,186.2393)"
           id="g116"><path
             id="path118"
             style="fill:#2b2b2a;fill-opacity:1;fill-rule:nonzero;stroke:none"
             d="m 0,0 c 37.422,0 53.105,7.192 53.105,7.192 v 36.854 c 0,0 -22.335,-10.841 -46.48,-10.841 -24.039,0 -76.17,16.17 -76.657,75.249 C -89.256,102.1 -104.56,96.18 -115.673,91.501 -104.424,7.977 -35.178,0 0,0" /></g><g
           transform="translate(121.0132,378.1611)"
           id="g120"><path
             id="path122"
             style="fill:#737372;fill-opacity:1;fill-rule:nonzero;stroke:none"
             d="m 0,0 c 35.016,0 50.699,-14.491 50.699,-14.491 v 39.26 c 0,0 -11.52,11.491 -45.859,11.491 -44.694,0 -127.975,-20.035 -124.38,-119.539 0.217,-6.058 0.732,-11.737 1.461,-17.142 11.113,4.679 26.417,10.599 45.641,16.953 v 0.784 C -72.438,-22.929 -35.016,0 0,0" /></g><g
           transform="translate(175.9302,402.9297)"
           id="g124"><path
             id="path126"
             style="fill:#737372;fill-opacity:1;fill-rule:nonzero;stroke:none"
             d="m 0,0 v -76.737 c 28.77,5.056 60.459,9.356 95.095,12.357 C 69.328,-34.447 33.42,-4.137 0,0" /></g><g
           transform="translate(331.0791,342.1992)"
           id="g128"><path
             id="path130"
             style="fill:#2b2b2a;fill-opacity:1;fill-rule:nonzero;stroke:none"
             d="m 0,0 v -85.957 c 0,0 -12.058,8.466 -32.014,43.452 -6.272,11.113 -16.088,24.957 -28.04,38.856 -34.636,-3.001 -66.325,-7.301 -95.095,-12.358 v -135.139 h 44.073 V -9.301 c 0,0 27.391,-24.659 55.16,-72.789 41.964,-65.514 78.845,-69.867 102.991,-74.139 V 0.731 C 32.907,0.865 17.306,0.649 0,0" /></g><g
           transform="translate(331.0791,410.7715)"
           id="g132"><path
             id="path134"
             style="fill:#737372;fill-opacity:1;fill-rule:nonzero;stroke:none"
             d="m 0,0 v -68.572 c 17.306,0.649 32.907,0.865 47.075,0.731 V 0 Z" /></g><g
           transform="translate(427.7715,245.374)"
           id="g136"><path
             id="path138"
             style="fill:#2b2b2a;fill-opacity:1;fill-rule:nonzero;stroke:none"
             d="m 0,0 c 0,0 -0.622,-28.986 -45.887,-19.929 v -39.8 c 0,0 13.278,-3.028 30.771,-3.028 17.522,0 62.19,12.06 62.19,62.757 V 86.552 C 35.665,89.958 20.413,92.986 0,94.988 Z" /></g><g
           transform="translate(427.7715,410.7715)"
           id="g140"><path
             id="path142"
             style="fill:#737372;fill-opacity:1;fill-rule:nonzero;stroke:none"
             d="m 0,0 v -70.409 c 20.413,-2.002 35.665,-5.03 47.074,-8.437 V 0 Z" /></g></g></g></g></svg>